<mxfile host="app.diagrams.net" modified="2024-04-28T03:10:12.212Z" agent="Mozilla/5.0 (Windows NT 10.0; Win64; x64) AppleWebKit/537.36 (KHTML, like Gecko) Chrome/123.0.0.0 Safari/537.36" version="24.3.1" etag="hL6fx_SZRgqv8i6rMufY" type="github">
  <diagram name="ページ1" id="lUDZf_NzFfxHcuryDdhC">
    <mxGraphModel>
      <root>
        <mxCell id="0" />
        <mxCell id="1" parent="0" />
      </root>
    </mxGraphModel>
  </diagram>
</mxfile>
